{"title":"Zombieland (2009, TS XviD) - Jesse Eisenberg,Woody Harrelson,Bil","uid":5111487,"size":1519778422,"categoryP":"video","categoryS":"movies","magnet":"?xt=urn:btih:acb3ddbbe0caf9092650f4de3e29acd0c6acad2d&amp;dn=Zombieland+%282009%2C+TS+XviD%29+-+Jesse+Eisenberg%2CWoody+Harrelson%2CBil&amp;tr=udp%3A%2F%2Ftracker.openbittorrent.com%3A80&amp;tr=udp%3A%2F%2Fopen.demonii.com%3A1337&amp;tr=udp%3A%2F%2Ftracker.coppersurfer.tk%3A6969&amp;tr=udp%3A%2F%2Fexodus.desync.com%3A6969","seeders":1,"leechers":0,"uploader":"pure_screens","files":5,"time":1254841684,"description":"Zombieland TS XVID\n\n\n\nscreens + 42 screenshots: &lt;a href=&quot;\nhttp://www.cmylink.com/Zombieland&quot; rel=&quot;nofollow&quot; target=&quot;_NEW&quot;&gt;\nhttp://www.cmylink.com/Zombieland&lt;/a&gt;\n\n\n\n\nIn the horror comedy Zombieland focuses on two men who have found a way to survive a world overrun by zombies. Columbus is a big wuss -- but when you're afraid of being eaten by zombies, fear can keep you alive. Tallahassee is an AK-toting, zombie-slaying' bad ass whose single determination is to get the last Twinkie on earth. As they join forces with Wichita and Little Rock, who have also found unique ways to survive the zombie mayhem, they will have to determine which is worse: relying on each other or succumbing to the zombies.\n\n\nCast:\n\n\tJesse Eisenberg\t ... \tColumbus\n\n\tWoody Harrelson\t... \tTallahassee\n\n\tEmma Stone\t... \tWichita\n\tAbigail Breslin\t... \tLittle Rock\n\n\tAmber Heard\t... \t406\n\n\tBill Murray\t... \tHimself\n\tDerek Graf\t... \tClown Zombie\n\n\n\nDirector: Ruben Fleischer\nWriters (WGA): Rhett Reese &amp; Paul Wernick \nRelease Date: 25 November 2009 \nGenre: Action | Comedy | Horror \n \n\nRipper ...........:IMAGiNE \nIMDB Rating.......:8.5/10\nVideo Codec.......:XVID \nRelease Date......:05/10/09\nAudio Codec.......:MP3 \nTheatre Date......:25/09/09\nAudio Bitrate.....:160 \nRuntime...........:1h 22mn\nSubtitles.........:NIL \nLanguage..........:ENGLISH\nResolution.....,..:688 x 304 \nIMDb URL..........:http://www.imdb.com/title/tt1156398\n\n\nDETAILS:\n\nVideo\nID : 0\nFormat : MPEG-4 Visual\nFormat profile : AdvancedSimple@L5\nFormat settings, BVOP : Yes\nFormat settings, QPel : No\nFormat settings, GMC : No warppoints\nFormat settings, Matrix : Default (H.263)\nCodec ID : XVID\nCodec ID/Hint : XviD\nDuration : 1h 22mn\nBit rate : 2 205 Kbps\nWidth : 688 pixels\nHeight : 304 pixels\nDisplay aspect ratio : 2.25:1\nFrame rate : 23.976 fps\nResolution : 24 bits\nColorimetry : 4:2:0\nScan type : Progressive\nBits/(Pixel*Frame) : 0.440\nStream size : 1.27 GiB (93%)\nWriting library : XviD 1.2.1 (UTC 2008-12-04)\n\nAudio\nID : 1\nFormat : MPEG Audio\nFormat version : Version 1\nFormat profile : Layer 3\nCodec ID : 55\nCodec ID/Hint : MP3\nDuration : 1h 22mn\nBit rate mode : Constant\nBit rate : 160 Kbps\nChannel(s) : 2 channels\nSampling rate : 44.1 KHz\nResolution : 16 bits\nStream size : 94.5 MiB (7%)\nAlignment : Split accross interleaves\nInterleave, duration : 42 ms (1.00 video frame)\nInterleave, preload duration : 500 ms\n\n\n\n.","torrent":{"xt":"urn:btih:acb3ddbbe0caf9092650f4de3e29acd0c6acad2d","amp;dn":"Zombieland+%282009%2C+TS+XviD%29+-+Jesse+Eisenberg%2CWoody+Harrelson%2CBil","amp;tr":["udp%3A%2F%2Ftracker.openbittorrent.com%3A80","udp%3A%2F%2Fopen.demonii.com%3A1337","udp%3A%2F%2Ftracker.coppersurfer.tk%3A6969","udp%3A%2F%2Fexodus.desync.com%3A6969"],"infoHash":"acb3ddbbe0caf9092650f4de3e29acd0c6acad2d","infoHashBuffer":{"type":"Buffer","data":[172,179,221,187,224,202,249,9,38,80,244,222,62,41,172,208,198,172,173,45]},"announce":[],"urlList":[]}}